<?xml version="1.0" encoding="UTF-8" standalone="no"?>
<!DOCTYPE svg PUBLIC "-//W3C//DTD SVG 1.1//EN"
 "http://www.w3.org/Graphics/SVG/1.1/DTD/svg11.dtd">
<!-- Generated by graphviz version 2.43.0 (0)
 -->
<!-- Title: Flowchart Pages: 1 -->
<svg width="584pt" height="490pt"
 viewBox="0.00 0.00 584.00 490.00" xmlns="http://www.w3.org/2000/svg" xmlns:xlink="http://www.w3.org/1999/xlink">
<g id="graph0" class="graph" transform="scale(1 1) rotate(0) translate(4 486)">
<title>Flowchart</title>
<polygon fill="white" stroke="transparent" points="-4,4 -4,-486 580,-486 580,4 -4,4"/>
<g id="clust1" class="cluster">
<title>cluster_main</title>
<path fill="lightgrey" stroke="lightgrey" d="M186,-154C186,-154 386,-154 386,-154 392,-154 398,-160 398,-166 398,-166 398,-462 398,-462 398,-468 392,-474 386,-474 386,-474 186,-474 186,-474 180,-474 174,-468 174,-462 174,-462 174,-166 174,-166 174,-160 180,-154 186,-154"/>
<text text-anchor="middle" x="286" y="-460.4" font-family="Arial" font-size="12.00" fill="#333333">main(string[] args)</text>
</g>
<g id="clust2" class="cluster">
<title>cluster_Test</title>
<path fill="lightgrey" stroke="lightgrey" d="M20,-8C20,-8 154,-8 154,-8 160,-8 166,-14 166,-20 166,-20 166,-297 166,-297 166,-303 160,-309 154,-309 154,-309 20,-309 20,-309 14,-309 8,-303 8,-297 8,-297 8,-20 8,-20 8,-14 14,-8 20,-8"/>
<text text-anchor="middle" x="87" y="-295.4" font-family="Arial" font-size="12.00" fill="#333333">Test(int x)</text>
</g>
<g id="clust3" class="cluster">
<title>cluster_Hix</title>
<path fill="lightgrey" stroke="lightgrey" d="M418,-236C418,-236 556,-236 556,-236 562,-236 568,-242 568,-248 568,-248 568,-297 568,-297 568,-303 562,-309 556,-309 556,-309 418,-309 418,-309 412,-309 406,-303 406,-297 406,-297 406,-248 406,-248 406,-242 412,-236 418,-236"/>
<text text-anchor="middle" x="487" y="-295.4" font-family="Arial" font-size="12.00" fill="#333333">Hix(string message)</text>
</g>
<!-- main_start -->
<g id="node1" class="node">
<title>main_start</title>
<ellipse fill="lightblue" stroke="black" cx="286" cy="-427" rx="36.49" ry="18"/>
<text text-anchor="middle" x="286" y="-424.5" font-family="Arial" font-size="10.00">Start main</text>
</g>
<!-- Node1 -->
<g id="node2" class="node">
<title>Node1</title>
<polygon fill="none" stroke="black" points="390,-372 182,-372 182,-336 390,-336 390,-372"/>
<text text-anchor="middle" x="286" y="-351.5" font-family="Arial" font-size="10.00">Console.WriteLine($&quot;EIMAI O HIX, vlakas&quot;)</text>
</g>
<!-- main_start&#45;&gt;Node1 -->
<g id="edge1" class="edge">
<title>main_start&#45;&gt;Node1</title>
<path fill="none" stroke="black" d="M286,-408.81C286,-400.79 286,-391.05 286,-382.07"/>
<polygon fill="black" stroke="black" points="289.5,-382.03 286,-372.03 282.5,-382.03 289.5,-382.03"/>
</g>
<!-- Node2 -->
<g id="node3" class="node">
<title>Node2</title>
<polygon fill="none" stroke="black" points="242,-280 209.57,-262 242,-244 274.43,-262 242,-280"/>
<text text-anchor="middle" x="242" y="-259.5" font-family="Arial" font-size="10.00">x &gt; 5</text>
</g>
<!-- Node1&#45;&gt;Node2 -->
<g id="edge2" class="edge">
<title>Node1&#45;&gt;Node2</title>
<path fill="none" stroke="black" d="M272.06,-335.65C264,-322.15 254.54,-303.25 248.15,-288.11"/>
<polygon fill="black" stroke="black" points="251.39,-286.79 244.44,-278.79 244.89,-289.38 251.39,-286.79"/>
</g>
<!-- Node1&#45;&gt;Node2 -->
<g id="edge5" class="edge">
<title>Node1&#45;&gt;Node2</title>
<path fill="none" stroke="black" d="M282.97,-335.65C277.31,-320.76 266.91,-299.27 257.81,-283.53"/>
<polygon fill="black" stroke="black" points="260.55,-281.31 252.36,-274.58 254.57,-284.94 260.55,-281.31"/>
</g>
<!-- Hix_end -->
<g id="node11" class="node">
<title>Hix_end</title>
<ellipse fill="lightblue" stroke="black" cx="445" cy="-262" rx="30.72" ry="18"/>
<text text-anchor="middle" x="445" y="-259.5" font-family="Arial" font-size="10.00">End Hix</text>
</g>
<!-- Node1&#45;&gt;Hix_end -->
<g id="edge16" class="edge">
<title>Node1&#45;&gt;Hix_end</title>
<path fill="none" stroke="black" d="M346.37,-335.99C365.08,-329.21 385.19,-320.28 402,-309 411.12,-302.88 419.71,-294.48 426.78,-286.52"/>
<polygon fill="black" stroke="black" points="429.51,-288.72 433.3,-278.82 424.17,-284.19 429.51,-288.72"/>
</g>
<!-- main_end -->
<g id="node4" class="node">
<title>main_end</title>
<ellipse fill="lightblue" stroke="black" cx="304" cy="-180" rx="34.29" ry="18"/>
<text text-anchor="middle" x="304" y="-177.5" font-family="Arial" font-size="10.00">End main</text>
</g>
<!-- Node2&#45;&gt;main_end -->
<g id="edge3" class="edge">
<title>Node2&#45;&gt;main_end</title>
<path fill="none" stroke="black" d="M251.42,-248.85C260.42,-237.23 274.25,-219.39 285.47,-204.91"/>
<polygon fill="black" stroke="black" points="288.35,-206.9 291.71,-196.85 282.82,-202.61 288.35,-206.9"/>
</g>
<!-- Node4 -->
<g id="node7" class="node">
<title>Node4</title>
<ellipse fill="none" stroke="black" cx="97" cy="-180" rx="61.44" ry="18"/>
<text text-anchor="middle" x="97" y="-177.5" font-family="Arial" font-size="10.00">message = &quot;vlakas&quot;</text>
</g>
<!-- Node2&#45;&gt;Node4 -->
<g id="edge6" class="edge">
<title>Node2&#45;&gt;Node4</title>
<path fill="none" stroke="green" d="M223.87,-253.91C209.45,-248.46 188.65,-241.04 170,-236 147.7,-229.97 137.32,-240.07 119,-226 112.84,-221.27 108.29,-214.35 104.99,-207.36"/>
<polygon fill="green" stroke="green" points="108.2,-205.95 101.23,-197.97 101.7,-208.55 108.2,-205.95"/>
<text text-anchor="middle" x="127" y="-218.8" font-family="Arial" font-size="9.00">true</text>
</g>
<!-- Node2&#45;&gt;Node4 -->
<g id="edge7" class="edge">
<title>Node2&#45;&gt;Node4</title>
<path fill="none" stroke="black" d="M226.48,-252.44C204.43,-240.27 163.39,-217.63 133.41,-201.09"/>
<polygon fill="black" stroke="black" points="134.94,-197.93 124.49,-196.17 131.56,-204.06 134.94,-197.93"/>
</g>
<!-- Node5 -->
<g id="node8" class="node">
<title>Node5</title>
<polygon fill="none" stroke="black" points="152,-125 78,-125 78,-89 152,-89 152,-125"/>
<text text-anchor="middle" x="115" y="-104.5" font-family="Arial" font-size="10.00">Hix(&quot;vlakas&quot;)</text>
</g>
<!-- Node2&#45;&gt;Node5 -->
<g id="edge9" class="edge">
<title>Node2&#45;&gt;Node5</title>
<path fill="none" stroke="red" d="M234.34,-248.1C221.67,-227.24 194.95,-185.3 167,-154 160.08,-146.25 151.91,-138.5 144.14,-131.63"/>
<polygon fill="red" stroke="red" points="146.4,-128.96 136.54,-125.08 141.83,-134.26 146.4,-128.96"/>
<text text-anchor="middle" x="212" y="-177.8" font-family="Arial" font-size="9.00">false</text>
</g>
<!-- Node2&#45;&gt;Node5 -->
<g id="edge10" class="edge">
<title>Node2&#45;&gt;Node5</title>
<path fill="none" stroke="black" d="M244.15,-244.97C246.27,-222.25 246.7,-180.49 226,-154 210.45,-134.1 184.78,-122.73 162.04,-116.28"/>
<polygon fill="black" stroke="black" points="162.74,-112.84 152.18,-113.72 160.98,-119.62 162.74,-112.84"/>
</g>
<!-- Test_start -->
<g id="node5" class="node">
<title>Test_start</title>
<ellipse fill="lightblue" stroke="black" cx="123" cy="-262" rx="34.96" ry="18"/>
<text text-anchor="middle" x="123" y="-259.5" font-family="Arial" font-size="10.00">Start Test</text>
</g>
<!-- Test_start&#45;&gt;Node1 -->
<g id="edge4" class="edge">
<title>Test_start&#45;&gt;Node1</title>
<path fill="none" stroke="black" d="M136.06,-278.77C144.83,-288.54 157.11,-300.76 170,-309 184.57,-318.31 201.4,-326.1 217.65,-332.42"/>
<polygon fill="black" stroke="black" points="216.53,-335.74 227.12,-335.97 218.98,-329.18 216.53,-335.74"/>
</g>
<!-- Node3 -->
<g id="node6" class="node">
<title>Node3</title>
<ellipse fill="none" stroke="black" cx="63" cy="-262" rx="7" ry="7"/>
</g>
<!-- Node3&#45;&gt;Node4 -->
<g id="edge12" class="edge">
<title>Node3&#45;&gt;Node4</title>
<path fill="none" stroke="black" d="M61.78,-254.99C63.38,-244.87 71.44,-223.87 79.67,-206.83"/>
<polygon fill="black" stroke="black" points="82.81,-208.36 84.21,-197.85 76.57,-205.19 82.81,-208.36"/>
</g>
<!-- Node4&#45;&gt;Node3 -->
<g id="edge8" class="edge">
<title>Node4&#45;&gt;Node3</title>
<path fill="none" stroke="black" d="M95.37,-198.16C90.62,-213.13 81.35,-234.53 73.61,-248.09"/>
<polygon fill="black" stroke="black" points="70.54,-246.39 68.09,-256.7 76.43,-250.17 70.54,-246.39"/>
</g>
<!-- Node4&#45;&gt;Node5 -->
<g id="edge13" class="edge">
<title>Node4&#45;&gt;Node5</title>
<path fill="none" stroke="black" d="M101.36,-161.81C103.41,-153.7 105.91,-143.84 108.21,-134.78"/>
<polygon fill="black" stroke="black" points="111.62,-135.58 110.68,-125.03 104.83,-133.86 111.62,-135.58"/>
</g>
<!-- Node5&#45;&gt;Node3 -->
<g id="edge11" class="edge">
<title>Node5&#45;&gt;Node3</title>
<path fill="none" stroke="black" d="M77.77,-117.49C59.07,-124.35 38.07,-135.72 27,-154 8.16,-185.11 35.55,-227.35 52.05,-248.23"/>
<polygon fill="black" stroke="black" points="49.58,-250.73 58.66,-256.2 54.97,-246.27 49.58,-250.73"/>
</g>
<!-- Test_end -->
<g id="node9" class="node">
<title>Test_end</title>
<ellipse fill="lightblue" stroke="black" cx="115" cy="-34" rx="32.25" ry="18"/>
<text text-anchor="middle" x="115" y="-31.5" font-family="Arial" font-size="10.00">End Test</text>
</g>
<!-- Node5&#45;&gt;Test_end -->
<g id="edge14" class="edge">
<title>Node5&#45;&gt;Test_end</title>
<path fill="none" stroke="black" d="M115,-88.81C115,-80.79 115,-71.05 115,-62.07"/>
<polygon fill="black" stroke="black" points="118.5,-62.03 115,-52.03 111.5,-62.03 118.5,-62.03"/>
</g>
<!-- Hix_start -->
<g id="node10" class="node">
<title>Hix_start</title>
<ellipse fill="lightblue" stroke="black" cx="527" cy="-262" rx="32.93" ry="18"/>
<text text-anchor="middle" x="527" y="-259.5" font-family="Arial" font-size="10.00">Start Hix</text>
</g>
<!-- Hix_start&#45;&gt;Node1 -->
<g id="edge15" class="edge">
<title>Hix_start&#45;&gt;Node1</title>
<path fill="none" stroke="black" d="M516.02,-279.44C508.46,-289.48 497.55,-301.75 485,-309 459.27,-323.88 429,-333.73 399.93,-340.25"/>
<polygon fill="black" stroke="black" points="399.19,-336.83 390.13,-342.34 400.64,-343.68 399.19,-336.83"/>
</g>
</g>
</svg>
